<svg xmlns="http://www.w3.org/2000/svg" viewBox="51.7408 8.504 88.91 120.5">
  <path d="m80.372 101.729s-4.604 2.679 3.28 3.584c9.554 1.091 14.434.934 24.959-1.057 0 0 2.771 1.735 6.639 3.236-23.601 10.113-53.413-.585-34.878-5.763zm-2.885-13.197s-5.165 3.823 2.726 4.639c10.206 1.054 18.262 1.14 32.211-1.544 0 0 1.926 1.955 4.957 3.023-28.531 8.345-60.307.657-39.894-6.118zm24.31-22.389c5.818 6.697-1.525 12.72-1.525 12.72s14.766-7.621 7.984-17.168c-6.332-8.899-11.189-13.32 15.102-28.566-.001-.001-41.27 10.303-21.561 33.014zm31.213 45.348s3.408 2.81-3.754 4.983c-13.619 4.125-56.694 5.369-68.659.164-4.298-1.872 3.766-4.467 6.303-5.015 2.646-.572 4.156-.468 4.156-.468-4.783-3.368-30.916 6.615-13.272 9.479 48.112 7.801 87.704-3.512 75.226-9.143zm-50.423-36.634s-21.908 5.205-7.757 7.097c5.977.799 17.883.615 28.982-.316 9.068-.761 18.17-2.389 18.17-2.389s-3.195 1.371-5.51 2.949c-22.251 5.853-65.229 3.127-52.855-2.856 10.462-5.061 18.97-4.485 18.97-4.485zm39.304 21.967c22.617-11.75 12.16-23.044 4.859-21.522-1.785.373-2.586.695-2.586.695s.666-1.042 1.932-1.49c14.441-5.075 25.545 14.972-4.656 22.911-.001 0 .347-.314.451-.594zm-13.635-88.32s12.523 12.531-11.881 31.794c-19.571 15.458-4.462 24.269-.006 34.34-11.426-10.307-19.807-19.382-14.185-27.826 8.254-12.395 31.125-18.406 26.072-38.308zm-23.444 120.17c21.706 1.388 55.045-.771 55.836-11.044 0 0-1.518 3.894-17.941 6.983-18.529 3.488-41.386 3.082-54.938.845 0 0 2.777 2.298 17.043 3.216z" fill="#000000"/>
</svg>