<svg xmlns="http://www.w3.org/2000/svg" viewBox="137.99 263.305 914 315.3">
  <path d="m271.86 280.09h61.51v205.16c.45 17.3-3.92 34.39-12.64 49.34-8.48 13.91-20.73 25.12-35.34 32.33-16.33 7.9-34.3 11.81-52.43 11.41-16.55.23-32.97-3-48.2-9.48-13.97-5.99-25.85-15.99-34.13-28.73-8.43-12.83-12.64-29.01-12.64-48.55h61.92c.19 11.66 3.57 20.77 10.15 27.21 7.01 6.65 16.42 10.16 26.08 9.7 23.64 0 35.56-14.41 35.75-43.24v-205.15zm197.98 298.52c-22.31 0-41.58-4.76-57.81-14.29-16.13-9.4-29.18-23.28-37.58-39.95-9.14-18.5-13.67-38.92-13.21-59.55-.47-20.72 4.06-41.24 13.21-59.83 8.41-16.66 21.46-30.54 37.58-39.95 17.63-9.88 37.6-14.81 57.81-14.29 20.21-.52 40.19 4.41 57.84 14.29 16.11 9.41 29.15 23.29 37.55 39.95 9.16 18.59 13.71 39.11 13.24 59.83.45 20.63-4.1 41.05-13.24 59.55-8.39 16.67-21.43 30.55-37.55 39.95-16.24 9.55-35.52 14.31-57.84 14.29zm69.98-298.52v33.19h-139.92v-33.19h139.92zm-69.53 251.11c14.11.58 27.37-6.73 34.42-18.96 7.8-12.64 11.69-28.58 11.69-47.82 0-19.24-3.93-35.21-11.79-47.92-7.05-12.24-20.31-19.54-34.42-18.96-14.21-.6-27.58 6.69-34.77 18.96-7.86 12.64-11.79 28.61-11.79 47.92 0 19.3 3.93 35.24 11.79 47.82 7.18 12.24 20.52 19.54 34.7 18.96h.17zm256.51-177.56v45.99h-41.53v107.02c0 8.43 1.92 14.12 5.75 17.07 4.34 3.13 9.61 4.7 14.95 4.46 2.88 0 5.76-.26 8.6-.79l6.61-1.2 9.48 45.54c-3.16.95-7.36 2.09-12.93 3.35-6.66 1.43-13.45 2.22-20.26 2.37-22.23.99-40.07-3.81-53.51-14.41-13.44-10.6-20.07-26.76-19.88-48.48v-114.93h-30.18v-45.99h30.18v-52.88h61.19v52.88h41.53zm93.87 224.85c-21.07 0-38.55-5.51-52.43-16.53s-20.83-27.44-20.83-49.27c0-16.46 3.88-29.38 11.63-38.78 8.05-9.6 18.62-16.75 30.53-20.64 13.14-4.46 26.76-7.33 40.58-8.53 13.82-1.1 27.54-3.11 41.09-6.04 8.26-2.11 12.38-6.7 12.36-13.78v-.88c.46-7.96-2.67-15.71-8.53-21.11-5.73-4.95-13.8-7.44-24.21-7.46-9.31-.49-18.53 2.03-26.3 7.17-6.25 4.44-10.81 10.87-12.93 18.24l-56.61-4.58c3.77-19.45 15.05-36.64 31.39-47.85 16.73-11.76 38.31-17.65 64.73-17.67 15.66-.12 31.21 2.51 45.96 7.78 13.57 4.67 25.55 13.06 34.58 24.21 8.77 10.98 13.15 25.22 13.15 42.73v148.83h-58.03v-30.59h-1.71c-5.55 10.42-13.89 19.1-24.08 25.06-10.69 6.45-24.13 9.69-40.34 9.69zm17.51-42.26c12.11.47 23.94-3.71 33.06-11.69 8.38-7.31 13.11-17.95 12.93-29.08v-23.42c-3.44 2.04-7.2 3.49-11.13 4.3-5.06 1.23-10.4 2.31-16.12 3.16s-10.78 1.71-15.3 2.37c-9.22 1-18.09 4.11-25.92 9.07-6.5 4.37-10.23 11.83-9.83 19.66-.39 7.46 3.04 14.6 9.1 18.96 6.82 4.58 14.9 6.92 23.1 6.67h.11zm180.63-211.04c-8.66.14-17.04-3.14-23.29-9.13-6.28-5.54-9.84-13.53-9.77-21.9-.07-8.35 3.49-16.32 9.77-21.84 13.25-12.02 33.46-12.02 46.71 0 6.27 5.52 9.84 13.49 9.77 21.84.07 8.37-3.49 16.36-9.77 21.9-6.3 6.01-14.71 9.29-23.42 9.13zm-30.62 249.12v-220.67h61.19v220.67h-61.19z" fill="#000000"/>
</svg>